# xmcd CD database file
#
# Track frame offsets:
#	150
#	26697
#	49411
#	64462
#	83818
#	103476
#	120503
#	142201
#	175163
#	198499
#	218149
#
# Disc length: 3246 seconds
#
# Revision: 2
# Processed by: cddbd v1.5.2PL0 Copyright (c) Steve Scherf et al.
# Submitted via: CDex 1.51
#
DISCID=ad0cac0b
DTITLE=[re_jazz] - Nipponized
DYEAR=2008
DGENRE=Jazz
TTITLE0=The Brightness Of These Days
TTITLE1=MG4BB
TTITLE2=Twiggy Twiggy
TTITLE3=Rita
TTITLE4=Threesome
TTITLE5=You'll See
TTITLE6=Luv Connection
TTITLE7=Bibo Bo Aozora
TTITLE8=Unit
TTITLE9=Skin Against Skin
TTITLE10=Emperor
EXTD=YEAR: 2008
EXTT0=
EXTT1=
EXTT2=
EXTT3=
EXTT4=
EXTT5=
EXTT6=
EXTT7=
EXTT8=
EXTT9=
EXTT10=
PLAYORDER=
